<svg id="svg" xmlns="http://www.w3.org/2000/svg" xmlns:xlink="http://www.w3.org/1999/xlink" width="400" height="400" viewBox="0, 0, 400,400"><g id="svgg"><path id="path0" d="M223.333 42.642 C 182.247 54.661,160.359 67.886,132.805 97.339 C 126.496 104.083,121.333 110.337,121.333 111.237 C 121.333 112.137,119.027 118.227,116.208 124.770 C 113.388 131.313,109.999 140.717,108.676 145.667 C 106.358 154.342,105.085 156.168,103.333 153.333 C 102.194 151.490,96.874 151.659,94.933 153.600 C 93.840 154.693,93.333 161.157,93.333 174.005 C 93.333 191.486,93.094 193.290,89.935 199.629 C 83.672 212.198,79.129 213.030,84.981 200.536 C 88.575 192.863,90.899 153.341,87.757 153.335 C 85.857 153.332,85.305 158.743,85.566 174.776 C 85.959 198.895,82.612 208.955,75.222 205.867 C 69.679 203.552,63.423 203.459,61.670 205.667 C 59.113 208.889,57.037 217.368,58.394 219.052 C 61.378 222.757,64.709 255.859,63.263 267.437 C 61.856 278.695,60.414 273.984,58.730 252.630 C 57.152 232.622,56.555 229.333,54.498 229.333 C 53.771 229.333,53.497 229.853,53.890 230.489 C 54.283 231.125,55.212 239.375,55.954 248.822 C 56.696 258.270,58.178 268.841,59.248 272.314 C 61.119 278.383,61.075 278.770,58.118 282.314 C 49.016 293.221,48.013 309.272,56.429 309.347 C 58.401 309.365,70.950 318.743,80.059 327.006 C 89.134 335.238,101.374 341.333,108.830 341.333 C 111.986 341.333,117.612 342.533,121.333 344.000 C 128.032 346.640,136.536 347.380,142.333 345.826 C 147.903 344.334,145.389 343.330,137.232 343.790 C 128.692 344.272,115.055 340.348,111.851 336.487 C 109.215 333.311,111.218 333.206,119.448 336.086 C 130.735 340.036,143.046 339.281,150.396 334.188 L 155.799 330.443 151.900 324.294 C 147.488 317.338,147.118 314.177,150.033 308.335 C 152.845 302.698,155.622 301.909,156.622 306.463 C 157.878 312.183,162.244 318.448,166.988 321.341 L 171.333 323.990 167.333 323.993 C 161.647 323.997,153.956 319.860,154.196 316.927 C 154.304 315.612,153.704 314.778,152.863 315.073 C 144.400 318.045,160.941 328.136,170.746 325.983 C 175.765 324.880,179.318 326.845,174.653 328.143 C 172.827 328.652,169.383 329.127,167.000 329.200 C 164.617 329.274,162.667 329.933,162.667 330.667 C 162.667 332.727,169.811 331.945,179.549 328.820 C 181.986 328.038,182.572 328.533,183.339 332.024 C 184.671 338.091,190.187 337.295,189.598 331.121 C 189.054 325.428,190.987 324.653,195.746 328.658 C 197.931 330.496,200.232 332.004,200.859 332.008 C 201.487 332.013,202.979 333.738,204.176 335.843 C 205.373 337.947,208.823 340.758,211.843 342.091 C 214.863 343.423,217.333 344.933,217.333 345.445 C 217.333 345.958,218.689 346.718,220.347 347.134 C 222.004 347.550,224.440 349.718,225.760 351.952 C 232.264 362.964,242.098 360.174,247.918 345.667 L 249.657 341.333 261.448 341.333 C 274.804 341.333,276.000 342.186,276.000 351.706 C 276.000 372.715,310.673 356.888,328.789 327.609 C 336.398 315.311,338.059 295.235,331.251 297.847 C 330.341 298.196,329.293 297.324,328.923 295.908 C 328.453 294.110,327.082 293.333,324.379 293.333 C 320.556 293.333,315.385 277.581,318.771 276.251 C 329.073 272.202,352.861 249.308,355.783 240.629 C 369.155 200.914,363.600 157.105,339.172 109.635 C 316.956 66.463,293.828 51.235,249.667 50.703 C 247.799 50.680,246.667 49.847,246.667 48.496 C 246.667 46.713,245.721 46.477,241.362 47.174 C 236.105 48.015,236.069 47.992,237.362 44.591 C 238.080 42.704,238.667 40.899,238.667 40.580 C 238.667 39.366,231.018 40.394,223.333 42.642 M231.169 50.179 C 230.247 53.853,233.540 54.285,240.333 51.379 C 241.925 50.698,242.667 50.980,242.667 52.264 C 242.667 53.681,246.532 54.571,258.291 55.861 C 280.265 58.272,304.000 68.302,312.352 78.707 C 344.043 118.190,359.925 169.512,355.037 216.640 C 352.163 244.350,335.948 261.784,303.000 272.586 C 296.488 274.721,293.088 277.661,298.333 276.621 C 299.617 276.367,303.157 275.888,306.201 275.557 L 311.734 274.956 313.403 280.917 C 316.491 291.944,315.853 325.029,312.430 331.424 C 308.430 338.898,299.858 346.322,293.951 347.431 C 287.091 348.718,272.171 343.746,277.008 341.785 C 277.930 341.411,278.370 340.598,277.986 339.977 C 277.602 339.357,278.632 337.908,280.274 336.758 C 281.916 335.608,282.600 334.667,281.793 334.667 C 280.987 334.667,279.525 335.633,278.545 336.814 C 276.988 338.689,274.357 338.840,257.715 338.008 C 240.613 337.153,238.667 337.278,238.667 339.228 C 238.667 341.904,233.473 344.000,226.843 344.000 C 213.637 344.000,200.990 324.840,203.521 308.667 L 204.146 304.667 202.120 308.000 C 201.006 309.833,200.073 313.033,200.047 315.111 C 200.021 317.189,199.501 318.689,198.891 318.444 C 197.193 317.764,180.888 299.992,181.480 299.467 C 183.733 297.467,191.419 294.653,198.350 293.289 C 210.736 290.853,208.544 290.000,189.894 290.000 L 173.125 290.000 168.896 285.226 C 166.570 282.600,158.967 273.932,152.000 265.965 C 145.033 257.998,134.760 246.647,129.171 240.740 C 115.456 226.246,115.718 226.963,114.952 201.720 C 113.764 162.541,124.454 114.002,136.437 104.170 C 137.663 103.164,138.667 101.604,138.667 100.703 C 138.667 99.803,142.395 95.827,146.951 91.867 C 151.508 87.907,156.758 83.247,158.618 81.511 C 161.681 78.653,172.028 71.068,181.151 64.992 C 185.277 62.244,193.825 58.834,214.000 51.888 C 231.966 45.702,232.301 45.669,231.169 50.179 M101.801 157.722 L 105.602 160.763 104.118 170.715 C 103.301 176.188,102.548 185.664,102.445 191.772 C 102.230 204.527,99.905 209.518,95.636 206.390 C 93.399 204.751,93.391 204.305,95.493 198.138 C 97.313 192.796,97.582 188.282,96.983 173.143 C 96.192 153.170,96.176 153.220,101.801 157.722 M273.333 183.542 C 273.333 184.300,274.533 186.006,276.000 187.333 C 277.467 188.661,278.667 189.329,278.667 188.818 C 278.667 188.307,277.467 186.600,276.000 185.026 C 274.533 183.452,273.333 182.784,273.333 183.542 M277.333 183.754 C 277.333 185.161,283.903 187.668,288.667 188.078 C 298.148 188.894,297.862 186.012,288.361 185.000 C 284.863 184.628,280.950 183.886,279.667 183.352 C 278.327 182.795,277.333 182.966,277.333 183.754 M81.515 189.558 C 81.415 190.781,80.945 192.881,80.470 194.224 C 79.804 196.110,79.982 196.322,81.250 195.154 C 82.153 194.322,82.623 192.222,82.294 190.487 C 81.966 188.753,81.615 188.334,81.515 189.558 M108.334 218.561 C 107.775 219.471,101.333 212.993,101.333 211.520 C 101.333 210.779,102.683 208.728,104.333 206.963 L 107.333 203.754 108.006 210.877 C 108.376 214.795,108.524 218.252,108.334 218.561 M78.170 212.220 C 81.924 213.985,86.722 215.125,89.867 214.999 L 95.199 214.787 88.452 217.912 C 81.243 221.253,74.359 230.517,70.556 242.000 C 67.737 250.510,67.068 250.127,66.394 239.613 C 65.989 233.311,64.714 227.562,62.879 223.773 C 55.988 209.537,62.306 204.763,78.170 212.220 M99.580 221.000 C 100.036 222.283,104.667 227.877,109.871 233.429 C 119.675 243.889,145.005 272.171,151.172 279.542 L 154.693 283.750 148.854 288.890 C 142.186 294.759,139.692 296.161,128.943 300.083 C 124.695 301.633,120.638 303.598,119.927 304.450 C 110.018 316.332,107.208 323.404,108.630 332.888 L 109.491 338.632 105.089 337.751 C 99.269 336.587,87.460 329.449,80.000 322.585 C 72.464 315.652,64.006 309.757,57.985 307.241 C 50.287 304.025,51.664 298.326,65.397 276.548 C 66.825 274.283,69.447 265.862,71.223 257.834 C 75.787 237.198,81.062 226.676,89.083 222.211 C 96.479 218.094,98.465 217.865,99.580 221.000 M171.193 228.436 C 168.182 230.763,164.582 233.381,163.193 234.255 C 160.763 235.783,160.773 235.846,163.467 235.922 C 167.019 236.021,177.333 228.635,177.333 225.992 C 177.333 223.534,177.750 223.368,171.193 228.436 M303.206 232.632 C 289.393 235.662,276.475 242.253,279.135 244.913 C 279.602 245.379,284.106 244.144,289.144 242.167 C 294.182 240.190,302.136 237.791,306.819 236.836 C 312.396 235.699,315.333 234.456,315.333 233.235 C 315.333 230.677,312.710 230.547,303.206 232.632 M255.333 247.501 C 240.914 250.341,236.855 251.493,229.333 254.885 C 221.015 258.635,210.667 266.993,210.667 269.961 C 210.667 273.292,222.796 283.932,228.277 285.408 C 239.592 288.455,248.462 283.448,260.725 267.096 C 265.026 261.360,270.062 254.988,271.916 252.937 C 276.828 247.501,268.761 244.857,255.333 247.501 M262.103 257.810 C 258.746 261.739,256.000 265.518,256.000 266.206 C 256.000 268.144,246.497 276.789,241.733 279.186 C 233.137 283.511,222.857 281.090,217.425 273.462 L 214.639 269.550 219.622 265.443 C 227.785 258.714,244.677 253.199,262.000 251.605 C 264.933 251.336,267.530 251.014,267.770 250.891 C 268.010 250.768,265.460 253.881,262.103 257.810 M49.333 265.386 C 49.333 267.645,54.788 277.656,55.585 276.860 C 56.525 275.920,51.660 264.012,50.333 264.005 C 49.783 264.002,49.333 264.624,49.333 265.386 M187.595 267.258 C 177.216 270.921,168.395 276.928,170.421 278.955 C 171.284 279.817,173.726 279.123,177.534 276.933 C 182.230 274.232,193.289 270.311,205.000 267.194 C 205.917 266.950,206.667 266.132,206.667 265.375 C 206.667 262.984,197.004 263.937,187.595 267.258 M88.094 268.751 C 88.042 270.264,90.700 276.793,94.000 283.260 C 97.300 289.728,100.000 294.323,100.000 293.471 C 100.000 292.620,98.119 288.197,95.820 283.643 C 93.521 279.088,90.863 273.255,89.914 270.681 C 88.722 267.448,88.159 266.851,88.094 268.751 M88.845 290.667 C 89.295 292.500,90.483 295.800,91.484 298.000 C 92.947 301.213,93.145 301.344,92.488 298.667 C 92.038 296.833,90.851 293.533,89.849 291.333 C 88.386 288.121,88.188 287.990,88.845 290.667 M251.667 289.011 C 250.383 289.296,249.333 290.096,249.333 290.790 C 249.333 291.813,255.593 291.155,257.058 289.977 C 257.941 289.267,253.831 288.530,251.667 289.011 M173.000 300.343 C 175.383 302.642,177.333 305.259,177.333 306.159 C 177.333 307.059,179.429 310.542,181.991 313.898 L 186.649 320.000 182.973 320.000 C 177.613 320.000,165.489 311.365,163.218 305.930 C 158.051 293.563,163.025 290.722,173.000 300.343 M269.333 294.033 C 269.333 294.418,270.833 295.303,272.667 296.000 C 276.925 297.619,276.864 299.393,272.024 314.732 C 266.140 333.378,267.449 335.736,280.099 329.283 C 283.028 327.789,286.004 326.924,286.712 327.362 C 287.421 327.799,288.000 327.315,288.000 326.285 C 288.000 325.256,289.262 323.271,290.804 321.875 C 297.253 316.040,307.465 298.559,304.333 298.717 C 303.124 298.778,296.000 308.887,296.000 310.541 C 296.000 312.682,280.563 325.974,276.247 327.551 C 270.803 329.539,270.611 332.005,278.217 302.214 C 280.050 295.035,279.826 290.094,277.896 295.123 C 277.151 297.065,276.763 297.085,274.235 295.314 C 271.358 293.299,269.333 292.770,269.333 294.033 M100.381 303.333 C 100.391 307.000,100.650 308.342,100.957 306.315 C 101.263 304.288,101.255 301.288,100.939 299.648 C 100.622 298.008,100.371 299.667,100.381 303.333 M324.496 300.874 C 323.735 303.904,323.971 304.311,326.137 303.703 C 332.670 301.867,332.597 301.830,332.169 306.667 C 331.534 313.845,326.995 323.171,321.711 328.158 C 318.269 331.405,317.220 331.921,317.960 330.000 C 321.860 319.877,322.783 314.791,322.019 307.650 C 321.194 299.941,321.721 297.333,324.104 297.333 C 324.824 297.333,324.995 298.884,324.496 300.874 M146.474 300.133 L 150.680 301.599 147.340 305.568 C 142.727 311.051,142.947 316.975,148.000 323.333 C 152.834 329.416,152.884 330.026,148.770 332.722 C 141.565 337.443,122.058 336.063,114.145 330.272 C 106.657 324.793,117.795 307.470,132.000 302.504 C 137.500 300.581,142.060 298.931,142.134 298.837 C 142.208 298.743,144.161 299.326,146.474 300.133 M89.075 302.110 C 90.545 304.933,94.667 308.954,94.667 307.565 C 94.667 307.147,93.083 305.123,91.148 303.069 C 88.627 300.393,88.039 300.121,89.075 302.110 M60.733 321.078 C 61.430 321.671,65.751 325.331,70.336 329.212 C 74.921 333.094,80.528 338.002,82.795 340.120 C 86.898 343.953,97.611 348.000,103.654 348.000 C 109.124 348.000,105.699 345.725,98.864 344.819 C 92.161 343.930,86.159 340.356,77.333 332.000 C 71.328 326.315,62.663 320.000,60.867 320.000 C 59.999 320.000,59.948 320.410,60.733 321.078 M313.270 341.711 C 298.516 355.720,281.205 361.932,279.199 353.938 C 278.098 349.554,278.830 348.954,283.235 350.629 C 291.725 353.857,304.694 349.232,312.214 340.295 C 315.167 336.785,319.645 333.409,321.333 333.418 C 321.700 333.420,318.071 337.152,313.270 341.711 M243.441 346.243 C 242.312 348.309,240.150 351.448,238.637 353.218 L 235.886 356.436 232.361 353.803 C 227.324 350.043,227.058 348.000,231.606 348.000 C 233.884 348.000,237.303 346.431,240.050 344.125 C 245.217 339.788,246.524 340.605,243.441 346.243 M80.000 347.401 C 80.000 348.542,88.964 352.012,91.624 351.901 C 92.967 351.845,91.681 350.729,88.667 349.333 C 83.214 346.809,80.000 346.093,80.000 347.401 M122.667 352.000 C 123.767 352.711,126.767 353.292,129.333 353.292 C 132.833 353.292,133.500 352.969,132.000 352.000 C 130.900 351.289,127.900 350.708,125.333 350.708 C 121.834 350.708,121.167 351.031,122.667 352.000 " stroke="none" fill="#000000" fill-rule="evenodd"></path></g></svg>